# xmcd CD database file
#
# Track frame offsets:
#	150
#	19487
#	41800
#
# Disc length: 813 seconds
#
# Revision: 0
# Processed by: cddbd v1.5.1PL0 Copyright (c) Steve Scherf et al.
# Submitted via: CDex 1.51
#
DISCID=23032b03
DTITLE=SMILE - 風と雨の強い日
DYEAR=1997
DGENRE=JPop
TTITLE0=風と雨の強い日〜It's a Hard Day 〜
TTITLE1=素晴らしい朝(RARE TRACKS)
TTITLE2=風と雨の強い日〜It's a Hard Day 〜(BACKING TRACK)
EXTD=YEAR: 1997
EXTT0=
EXTT1=
EXTT2=
PLAYORDER=
